# xmcd CD database file
#
# Track frame offsets:
#	150
#	16910
#	29645
#	48647
#	62002
#	73865
#	85837
#	103065
#
# Disc length: 1554 seconds
#
# Revision: 2
# Processed by: cddbd v1.4PL0 Copyright (c) Steve Scherf et al.
# Submitted via: CDex 1.50
#
DISCID=6c061008
DTITLE=Johnny Cash - The Johnny Cash Collection
DYEAR=1996
DGENRE=Folk
TTITLE0=A Boy Named Sue
TTITLE1=Folsom Prison Blues
TTITLE2=Sunday Morning Coming Down
TTITLE3=Orange Blossom Special
TTITLE4=I Walk The Line
TTITLE5=Ring Of Fire
TTITLE6=(Ghost) Riders in the Sky
TTITLE7=Don't Take Your Guns To Town
EXTD=Sony Music  Special Editions\n\nBUK 50110\n\ncopyright 1996 Sony Music Entertainment (Canada) Inc.\ncopyright 1983 Sony Music Entertainment Inc.\n YEAR: 1996
EXTT0=
EXTT1=
EXTT2=
EXTT3=
EXTT4=
EXTT5=
EXTT6=
EXTT7=
PLAYORDER=
